<svg xmlns="http://www.w3.org/2000/svg" viewBox="0 0 32 32">
  <rect width="32" height="32" rx="8" fill="url(#g)"></rect>
  <defs>
    <linearGradient id="g" x1="0%" y1="0%" x2="100%" y2="100%">
      <stop offset="0%" stop-color="#6366f1"></stop>
      <stop offset="100%" stop-color="#7c3aed"></stop>
    </linearGradient>
  </defs>
  <g fill="none" stroke="white" stroke-width="1.65" stroke-linecap="round" stroke-linejoin="round">
    <path d="M16 19 C13 15 8 13 9 17 C10 20 14 20 16 19"></path>
    <path d="M16 19 C19 15 24 13 23 17 C22 20 18 20 16 19"></path>
    <path d="M16 20 C14 22 12 25 13 27"></path>
    <path d="M16 20 C18 22 20 25 19 27"></path>
    <line x1="16" y1="14" x2="16" y2="27"></line>
    <path d="M16 14 C15 11 13 10 11 9"></path>
    <path d="M16 14 C17 11 19 10 21 9"></path>
    <circle cx="16" cy="19" r="1.4" fill="white" stroke="none"></circle>
  </g>
</svg>